<svg fill="#506AA6" xmlns="http://www.w3.org/2000/svg" width="24" height="24" viewBox="0 0 24 24">
    <g fill-rule="nonzero">
        <path d="M12 0C5.383 0 0 5.383 0 12s5.383 12 12 12c6.616 0 12-5.383 12-12S18.616 0 12 0zm0 22.426C6.25 22.426 1.574 17.75 1.574 12 1.574 6.251 6.25 1.574 12 1.574c5.749 0 10.426 4.677 10.426 10.426 0 5.749-4.677 10.426-10.426 10.426z"/>
        <path d="M12 7.304a1.044 1.044 0 1 0 0-2.087 1.044 1.044 0 0 0 0 2.087zM13.78 16.679h-.691v-7.54c0-.437-.37-.791-.828-.791h-1.52c-.457 0-.828.354-.828.79 0 .438.37.792.828.792h.692v6.749h-.692c-.457 0-.828.354-.828.79 0 .438.37.792.828.792h3.04c.457 0 .828-.354.828-.791 0-.437-.37-.791-.828-.791z"/>
    </g>
</svg>
