<svg xmlns="http://www.w3.org/2000/svg" xmlns:xlink="http://www.w3.org/1999/xlink" width="56" height="56" viewBox="0 0 56 56">
    <defs>
        <circle id="b" cx="28" cy="28" r="28"/>
        <filter id="a" width="150%" height="150%" x="-25%" y="-17.9%" filterUnits="objectBoundingBox">
            <feOffset dy="4" in="SourceAlpha" result="shadowOffsetOuter1"/>
            <feGaussianBlur in="shadowOffsetOuter1" result="shadowBlurOuter1" stdDeviation="4"/>
            <feColorMatrix in="shadowBlurOuter1" values="0 0 0 0 0 0 0 0 0 0 0 0 0 0 0 0 0 0 0.1 0"/>
        </filter>
    </defs>
    <g fill="none" fill-rule="evenodd">
        <g>
            <use fill="#000" filter="url(#a)" xlink:href="#b"/>
        </g>
        <path fill="#91B0F9" d="M16.014 17.044C19.22 14.436 23.477 13 28 13c4.523 0 8.78 1.436 11.986 4.044 3.233 2.63 5.014 6.135 5.014 9.87 0 3.565-1.623 6.92-4.583 9.505.054.12.096.247.123.38l.973 4.78c.115.568-.04.907-.19 1.09a.917.917 0 0 1-.727.331c-.223 0-.462-.066-.71-.195l-5.656-2.937c-1.958.63-4.063.96-6.23.96-4.523 0-8.78-1.435-11.986-4.043-3.233-2.63-5.014-6.136-5.014-9.87 0-3.736 1.78-7.241 5.014-9.871zm19.875 12.78c1.4 0 2.539-1.14 2.539-2.539 0-1.4-1.14-2.538-2.54-2.538-1.4 0-2.539 1.139-2.539 2.538 0 1.4 1.14 2.538 2.54 2.538zm-7.848 0c1.4 0 2.54-1.14 2.54-2.539 0-1.4-1.14-2.538-2.54-2.538-1.4 0-2.539 1.139-2.539 2.538 0 1.4 1.14 2.538 2.54 2.538zm-7.846 0c1.4 0 2.539-1.14 2.539-2.539 0-1.4-1.14-2.538-2.54-2.538-1.4 0-2.539 1.139-2.539 2.538 0 1.4 1.14 2.538 2.54 2.538z"/>
    </g>
</svg>
