<svg fill="#506AA6" xmlns="http://www.w3.org/2000/svg" width="24" height="24" viewBox="0 0 24 24">
    <g fill-rule="nonzero">
        <path d="M19.019 0H5.705C4.149 0 2.888 1.28 2.888 2.857v1.234H1.563A.567.567 0 0 0 1 4.663c0 .315.252.571.563.571h1.319v3.749H1.563A.567.567 0 0 0 1 9.554c0 .316.252.572.563.572h1.319v3.748H1.563a.567.567 0 0 0-.563.572c0 .315.252.571.563.571h1.319v3.749H1.563a.567.567 0 0 0-.563.571c0 .316.252.572.563.572h1.319v1.234c0 1.578 1.261 2.856 2.817 2.857h13.314c1.556 0 2.817-1.28 2.817-2.857V2.857C21.832 1.281 20.573.001 19.02 0zm1.69 21.143a1.708 1.708 0 0 1-1.69 1.714H5.705a1.707 1.707 0 0 1-1.69-1.714v-1.234h1.318a.567.567 0 0 0 .563-.572.567.567 0 0 0-.563-.571H4.014v-3.749h1.319a.567.567 0 0 0 .563-.571.567.567 0 0 0-.563-.572H4.014v-3.748h1.319a.567.567 0 0 0 .563-.572.567.567 0 0 0-.563-.571H4.014V5.234h1.319a.567.567 0 0 0 .563-.571.567.567 0 0 0-.563-.572H4.014V2.857a1.707 1.707 0 0 1 1.69-1.714H19.02a1.708 1.708 0 0 1 1.69 1.714v18.286z"/>
        <path d="M12.32 11.774a2.717 2.717 0 1 0 0-5.434 2.717 2.717 0 0 0 0 5.434zm0-4.32a1.597 1.597 0 1 1 0 3.194 1.597 1.597 0 0 1 0-3.194zM12.32 12.68c-2.284 0-4.075 1.933-4.075 4.407.001.316.247.572.55.573h7.052a.564.564 0 0 0 .55-.573c0-2.474-1.791-4.408-4.076-4.408zm-2.932 3.833c.236-1.567 1.417-2.686 2.933-2.686 1.516 0 2.702 1.119 2.933 2.686H9.388z"/>
    </g>
</svg>
