<svg fill="#506AA6" xmlns="http://www.w3.org/2000/svg" width="24" height="24" viewBox="0 0 24 24">
    <g fill-rule="nonzero">
        <path d="M13.197 19.725c-.423.382-.894.791-1.196.883-.358-.106-.94-.644-1.793-1.431a180.71 180.71 0 0 0-.463-.426C6.576 15.847 3.177 11.597 3.138 8.38c-.013-1.101.357-1.999 1.133-2.745A5.329 5.329 0 0 1 7.977 4.13a5.29 5.29 0 0 1 3.634 1.436c.22.205.562.205.781 0a5.292 5.292 0 0 1 3.634-1.436c1.381 0 2.698.535 3.706 1.504 1.597 1.536 1.509 3.856-.263 6.897a.563.563 0 0 0 .207.772.57.57 0 0 0 .777-.206c2.575-4.42 1.46-6.94.07-8.275a6.465 6.465 0 0 0-8.522-.416 6.464 6.464 0 0 0-8.522.417c-.998.96-1.495 2.16-1.479 3.57.055 4.501 5.352 9.702 6.974 11.19.163.148.316.29.46.422 1.188 1.097 1.785 1.648 2.493 1.74a.57.57 0 0 0 .149 0c.569-.074 1.082-.457 1.886-1.183a.563.563 0 0 0 .039-.799.571.571 0 0 0-.804-.038z"/>
        <path d="M20.054 14.244H18.22v-1.807a.567.567 0 0 0-.572-.562h-2.296a.567.567 0 0 0-.572.562v1.807h-1.834a.567.567 0 0 0-.571.562v2.263c0 .31.256.562.571.562h1.834v1.807c0 .31.256.562.572.562h2.296a.567.567 0 0 0 .572-.562V17.63h1.834a.567.567 0 0 0 .571-.562v-2.263a.567.567 0 0 0-.571-.562zm-.571 2.262h-1.835a.567.567 0 0 0-.57.563v1.806h-1.155v-1.806a.567.567 0 0 0-.571-.563h-1.835V15.37h1.835a.567.567 0 0 0 .57-.563V13h1.155v1.806c0 .311.256.563.571.563h1.835v1.137z"/>
    </g>
</svg>
