<svg fill="#506AA6" xmlns="http://www.w3.org/2000/svg" width="24" height="24" viewBox="0 0 24 24">
    <path fill-rule="nonzero" d="M3.623 13.365a.384.384 0 0 0-.189.504l.865 1.856a.385.385 0 0 0 .508.188l6.536-3.05-.592 6.185a.384.384 0 0 0 .126.323c.287.237.644.372 1.016.384.102 0 .204-.013.303-.038.531-.138.942-.61 1.223-1.418l2.572-7.612 5.094-2.374c1.5-.7 2.273-2.117 1.754-3.224a1.946 1.946 0 0 0-1.504-1.05 3.566 3.566 0 0 0-2.099.324l-5.879 2.755-6.32-2.47c-.796-.3-1.427-.293-1.869.026a1.567 1.567 0 0 0-.573 1.241.384.384 0 0 0 .166.304l4.256 2.924-2.438 1.153-4.087-1.038a.385.385 0 0 0-.427.184l-1.018 1.833a.383.383 0 0 0 .2.542l3.025 1.249-.65.3zm1.76-7.642a.657.657 0 0 1 .231-.415c.22-.158.62-.134 1.154.065l5.628 2.194-2.568 1.2-4.445-3.044zm-3.46 5.548l.67-1.187 3.932.976a.385.385 0 0 0 .254-.023L19.563 5.07a2.812 2.812 0 0 1 1.642-.262c.393.037.744.264.938.608.323.691-.312 1.702-1.384 2.201l-4.43 2.075.27-.795a.39.39 0 1 0-.742-.246l-3.165 9.41c-.188.534-.423.853-.684.922a.651.651 0 0 1-.47-.088l.77-8.07a.386.386 0 0 0-.77-.072l-.118 1.233-6.598 3.074-.542-1.153 1.084-.507a.384.384 0 0 0 0-.703l-3.44-1.426z"/>
</svg>
