<?xml version="1.0" encoding="UTF-8"?>
<svg xmlns="http://www.w3.org/2000/svg" xmlns:xlink="http://www.w3.org/1999/xlink" width="16pt" height="16pt" viewBox="0 0 16 16" version="1.1">
<g id="surface1117709">
<path style=" stroke:none;fill-rule:nonzero;fill:rgb(100%,100%,100%);fill-opacity:1;" d="M 8 16 C 3.582031 16 0 12.417969 0 8 C 0 3.582031 3.582031 0 8 0 C 12.417969 0 16 3.582031 16 8 C 16 12.417969 12.417969 16 8 16 Z M 8 16 "/>
<path style=" stroke:none;fill-rule:nonzero;fill:rgb(18.039216%,80%,44.313725%);fill-opacity:1;" d="M 8 0 C 3.582031 0 0 3.582031 0 8 C 0 9.5 0.421875 10.898438 1.140625 12.101562 L 0.0703125 16 L 4.054688 14.953125 C 5.21875 15.617188 6.5625 16 8 16 C 12.417969 16 16 12.417969 16 8 C 16 3.582031 12.417969 0 8 0 Z M 5.261719 4.269531 C 5.390625 4.269531 5.523438 4.265625 5.640625 4.273438 C 5.785156 4.277344 5.9375 4.289062 6.085938 4.617188 C 6.265625 5.007812 6.648438 5.988281 6.699219 6.085938 C 6.746094 6.183594 6.78125 6.300781 6.714844 6.433594 C 6.648438 6.566406 6.613281 6.644531 6.519531 6.765625 C 6.417969 6.878906 6.308594 7.019531 6.21875 7.109375 C 6.121094 7.207031 6.019531 7.316406 6.132812 7.515625 C 6.246094 7.710938 6.644531 8.363281 7.234375 8.886719 C 7.992188 9.5625 8.628906 9.769531 8.828125 9.867188 C 9.027344 9.96875 9.140625 9.953125 9.257812 9.820312 C 9.375 9.6875 9.753906 9.242188 9.886719 9.042969 C 10.015625 8.84375 10.148438 8.878906 10.328125 8.945312 C 10.511719 9.011719 11.484375 9.492188 11.683594 9.589844 C 11.882812 9.6875 12.011719 9.738281 12.0625 9.820312 C 12.113281 9.902344 12.113281 10.300781 11.949219 10.761719 C 11.785156 11.222656 10.976562 11.671875 10.613281 11.703125 C 10.246094 11.734375 9.90625 11.867188 8.234375 11.207031 C 6.21875 10.414062 4.945312 8.347656 4.847656 8.214844 C 4.75 8.085938 4.039062 7.144531 4.039062 6.167969 C 4.039062 5.191406 4.550781 4.714844 4.730469 4.515625 C 4.914062 4.316406 5.128906 4.269531 5.261719 4.269531 Z M 5.261719 4.269531 "/>
</g>
</svg>
