<svg xmlns="http://www.w3.org/2000/svg" width="16" height="16" viewBox="0 0 16 16">
    <path fill="#192959" fill-rule="nonzero" d="M15.828 7.71c0 4.259-3.479 7.71-7.77 7.71a7.794 7.794 0 0 1-3.756-.958L0 15.828l1.402-4.138A7.632 7.632 0 0 1 .288 7.71C.288 3.452 3.766 0 8.058 0c4.292.001 7.77 3.452 7.77 7.71zM8.057 1.23c-3.602 0-6.532 2.907-6.532 6.482 0 1.418.462 2.731 1.244 3.8l-.815 2.406 2.509-.797a6.531 6.531 0 0 0 3.594 1.072c3.602 0 6.533-2.908 6.533-6.483.001-3.573-2.93-6.48-6.533-6.48zm3.924 8.256c-.048-.077-.175-.125-.365-.22s-1.127-.552-1.301-.614c-.176-.063-.303-.095-.43.094-.125.19-.49.615-.602.742-.111.126-.222.142-.413.049-.19-.096-.804-.294-1.532-.938a5.686 5.686 0 0 1-1.06-1.309c-.111-.189-.01-.29.084-.385.085-.085.19-.22.286-.332.095-.11.127-.187.19-.314.063-.126.031-.236-.016-.332-.047-.095-.428-1.024-.587-1.402-.159-.378-.317-.315-.429-.315-.11 0-.237-.016-.364-.016a.697.697 0 0 0-.508.235c-.174.19-.666.647-.666 1.577 0 .93.682 1.828.777 1.954.096.126 1.318 2.097 3.254 2.853 1.937.757 1.937.504 2.286.472.35-.032 1.128-.457 1.285-.897.16-.443.16-.823.111-.902z"/>
</svg>
