<svg xmlns="http://www.w3.org/2000/svg" xmlns:xlink="http://www.w3.org/1999/xlink"><defs><filter id="a" width="150%" height="150%" x="-25%" y="-17.9%" filterUnits="objectBoundingBox"><feOffset dy="4" in="SourceAlpha" result="shadowOffsetOuter1"/><feGaussianBlur in="shadowOffsetOuter1" result="shadowBlurOuter1" stdDeviation="4"/><feColorMatrix in="shadowBlurOuter1" values="0 0 0 0 0 0 0 0 0 0 0 0 0 0 0 0 0 0 0.1 0"/></filter><filter id="a" width="1143.8%" height="1143.8%" x="-521.9%" y="-415.6%" filterUnits="objectBoundingBox"><feOffset dy="12" in="SourceAlpha" result="shadowOffsetOuter1"/><feGaussianBlur in="shadowOffsetOuter1" result="shadowBlurOuter1" stdDeviation="7.5"/><feColorMatrix in="shadowBlurOuter1" result="shadowMatrixOuter1" values="0 0 0 0 0.203921569 0 0 0 0 0.215686275 0 0 0 0 0.247058824 0 0 0 0.24 0"/><feOffset dy="17" in="SourceAlpha" result="shadowOffsetOuter2"/><feGaussianBlur in="shadowOffsetOuter2" result="shadowBlurOuter2" stdDeviation="25"/><feColorMatrix in="shadowBlurOuter2" result="shadowMatrixOuter2" values="0 0 0 0 0.202861901 0 0 0 0 0.214320905 0 0 0 0 0.248697917 0 0 0 0.19 0"/><feMerge><feMergeNode in="shadowMatrixOuter1"/><feMergeNode in="shadowMatrixOuter2"/></feMerge></filter><path id="a" d="M0 0h16v16H0z"/><path id="b" d="M19.375 11.375h-6.75v-6.75a.625.625 0 10-1.25 0v6.75h-6.75a.625.625 0 100 1.25h6.75v6.75a.625.625 0 101.25 0v-6.75h6.75a.625.625 0 100-1.25z"/><circle id="b" cx="28" cy="28" r="28"/></defs><symbol id="about" viewBox="0 0 24 24"><path d="M12 0C5.383 0 0 5.383 0 12s5.383 12 12 12c6.616 0 12-5.383 12-12S18.616 0 12 0zm0 22.426C6.25 22.426 1.574 17.75 1.574 12 1.574 6.251 6.25 1.574 12 1.574c5.749 0 10.426 4.677 10.426 10.426 0 5.749-4.677 10.426-10.426 10.426z"/><path d="M12 7.304a1.044 1.044 0 100-2.087 1.044 1.044 0 000 2.087zm1.78 9.375h-.691v-7.54c0-.437-.37-.791-.828-.791h-1.52c-.457 0-.828.354-.828.79 0 .438.37.792.828.792h.692v6.749h-.692c-.457 0-.828.354-.828.79 0 .438.37.792.828.792h3.04c.457 0 .828-.354.828-.791 0-.437-.37-.791-.828-.791z"/></symbol><symbol id="arrow" viewBox="0 0 16 16"><g fill="none" fill-rule="evenodd"><mask id="b" fill="#fff"><use xlink:href="#a"/></mask><path fill="#97AFF3" fill-rule="nonzero" d="M11.293 5.293a1 1 0 011.414 1.414l-4 4a1 1 0 01-1.409.006l-4-3.939A1 1 0 114.702 5.35l3.293 3.242 3.298-3.298z" mask="url(#b)"/></g></symbol><symbol id="car" viewBox="0 -100 421.917 421"><path d="M129.703 14.113h61.442a6.828 6.828 0 006.828-6.828 6.828 6.828 0 00-6.828-6.828h-61.442a6.824 6.824 0 00-6.824 6.828 6.824 6.824 0 006.824 6.828zM75.09 34.594h95.574a6.828 6.828 0 100-13.656H75.09c-3.77 0-6.824 3.054-6.824 6.828s3.054 6.828 6.824 6.828zm317.379 82.011c-39.969-2.351-79.524-13.984-114.387-33.648l-4.555-2.566c-24.011-13.532-50.89-21.75-77.734-23.754-39.457-2.957-95.148-2.485-136.387 16.574a6.832 6.832 0 00-3.613 8.36l2.113 6.335c-22.027 2.031-39.71 19.274-42.422 41.09C6.527 131.766 0 140.117 0 149.973v35.285a6.825 6.825 0 006.828 6.828h34.656c4.215 17.324 19.82 30.238 38.422 30.238 13.23 0 24.938-6.547 32.133-16.547h202.246c.195 0 .36-.093.55-.109 7.185 10.062 18.935 16.66 32.212 16.66 13.23 0 24.937-6.547 32.129-16.547h35.914a6.828 6.828 0 006.828-6.828V147.84c0-16.547-12.938-30.27-29.45-31.235zM79.906 208.672c-14.297 0-25.93-11.633-25.93-25.934 0-14.304 11.633-25.937 25.93-25.937 14.301 0 25.938 11.633 25.938 25.937 0 14.301-11.637 25.934-25.938 25.934zm267.14 0c-14.3 0-25.937-11.633-25.937-25.934 0-14.304 11.637-25.937 25.938-25.937s25.937 11.633 25.937 25.937c0 14.301-11.636 25.934-25.937 25.934zm38.419-16.547c.738-3.016 1.172-6.148 1.172-9.387 0-21.832-17.758-39.593-39.586-39.593-21.832 0-39.59 17.761-39.59 39.593 0 3.239.434 6.371 1.172 9.387H118.328c.734-3.016 1.172-6.148 1.172-9.387 0-21.832-17.762-39.593-39.59-39.593-20.37 0-37.187 15.472-39.344 35.289H13.652v-28.461c0-4.575 3.72-8.293 8.293-8.293a6.824 6.824 0 006.825-6.828c0-18.465 15.027-33.493 33.5-33.493h5.039c2.191 0 4.25-1.05 5.535-2.832s1.633-4.074.941-6.152l-3.062-9.188c38.011-15.425 88.004-15.624 124.05-12.933 24.86 1.86 49.77 9.473 72.047 22.035l4.555 2.566c36.664 20.672 78.258 32.907 120.293 35.38 7.922.464 14.336 6.156 16.082 13.585h-11.805a6.828 6.828 0 00-6.828 6.828 6.824 6.824 0 006.828 6.825h12.32v34.656h-22.8zm0 0" data-original="#000000" class="active-path" data-old_color="#000000"/><path d="M93.637 100.125c51.574 36.098 199.265 36.512 205.527 36.512a6.824 6.824 0 006.645-5.258 6.82 6.82 0 00-3.59-7.672L232.113 88.68c-12.941-7.766-42.898-8.54-71.465-7.118-.363-.058-.691-.214-1.07-.214-.64 0-1.215.199-1.805.363-28.878 1.586-55.695 5.277-61.187 6.062a6.827 6.827 0 00-2.95 12.352zm131.91.512l43.05 21.52c-26.667-1.169-66.546-3.993-102.195-10.786V94.996c26.301-1.039 49.883.098 59.145 5.64zM152.75 95.71v12.797c-11.984-2.754-23.195-6.012-32.836-9.914a712.894 712.894 0 0132.836-2.883zm0 0" data-original="#000000" class="active-path" data-old_color="#000000"/><path d="M324.285 128.363c-18.668 7.516-31.941 23.86-35.207 42.707l-16.023-.086-134.98.133c-4.606-26.851-28.9-47.047-58.024-47.047-23.633 0-44.88 13.446-54.133 34.254a6.827 6.827 0 003.465 9.012c3.433 1.531 7.48-.02 9.008-3.465 7.066-15.883 23.418-26.148 41.656-26.148 24.148 0 43.96 17.82 45.105 40.57a6.824 6.824 0 006.817 6.484h.008l141.046-.14 22.114.12h.035a6.827 6.827 0 006.82-6.5c.774-16.234 11.524-30.847 27.387-37.226a6.828 6.828 0 003.785-8.879c-1.406-3.5-5.367-5.187-8.879-3.789zm22.762 35.703c-10.297 0-18.672 8.38-18.672 18.672s8.375 18.672 18.672 18.672 18.672-8.379 18.672-18.672-8.375-18.672-18.672-18.672zm0 23.692c-2.766 0-5.02-2.254-5.02-5.02s2.254-5.02 5.02-5.02 5.02 2.255 5.02 5.02-2.255 5.02-5.02 5.02zm0 0" data-original="#000000" class="active-path" data-old_color="#000000"/><path d="M79.906 164.066c-10.293 0-18.672 8.38-18.672 18.672s8.38 18.672 18.672 18.672c10.301 0 18.676-8.379 18.676-18.672s-8.375-18.672-18.676-18.672zm0 23.692c-2.765 0-5.02-2.254-5.02-5.02s2.255-5.02 5.02-5.02c2.774 0 5.024 2.255 5.024 5.02s-2.25 5.02-5.024 5.02zm0 0" data-original="#000000" class="active-path" data-old_color="#000000"/></symbol><symbol id="chat" viewBox="0 0 56 56"><g fill="none" fill-rule="evenodd"><use fill="#000" filter="url(#a)" xlink:href="#b"/><path fill="#91B0F9" d="M16.014 17.044C19.22 14.436 23.477 13 28 13c4.523 0 8.78 1.436 11.986 4.044 3.233 2.63 5.014 6.135 5.014 9.87 0 3.565-1.623 6.92-4.583 9.505.054.12.096.247.123.38l.973 4.78c.115.568-.04.907-.19 1.09a.917.917 0 01-.727.331c-.223 0-.462-.066-.71-.195l-5.656-2.937c-1.958.63-4.063.96-6.23.96-4.523 0-8.78-1.435-11.986-4.043-3.233-2.63-5.014-6.136-5.014-9.87 0-3.736 1.78-7.241 5.014-9.871zm19.875 12.78c1.4 0 2.539-1.14 2.539-2.539 0-1.4-1.14-2.538-2.54-2.538a2.542 2.542 0 00-2.539 2.538c0 1.4 1.14 2.538 2.54 2.538zm-7.848 0c1.4 0 2.54-1.14 2.54-2.539 0-1.4-1.14-2.538-2.54-2.538a2.542 2.542 0 00-2.539 2.538c0 1.4 1.14 2.538 2.54 2.538zm-7.846 0c1.4 0 2.539-1.14 2.539-2.539 0-1.4-1.14-2.538-2.54-2.538a2.542 2.542 0 00-2.539 2.538c0 1.4 1.14 2.538 2.54 2.538z"/></g></symbol><symbol id="check" viewBox="0 0 16 16"><path fill="#FFF" fill-rule="evenodd" d="M1 8.192l1.4-1.346L6 10.308 13.6 3 15 4.346 6 13z"/></symbol><symbol id="close" viewBox="0 0 16 16"><g fill-rule="evenodd" transform="rotate(45 14.828 5.172)"><use filter="url(#a)" xlink:href="#b"/><use xlink:href="#b"/></g></symbol><symbol id="contact" viewBox="0 0 24 24"><path d="M19.019 0H5.705C4.149 0 2.888 1.28 2.888 2.857v1.234H1.563A.567.567 0 001 4.663c0 .315.252.571.563.571h1.319v3.749H1.563A.567.567 0 001 9.554c0 .316.252.572.563.572h1.319v3.748H1.563a.567.567 0 00-.563.572c0 .315.252.571.563.571h1.319v3.749H1.563a.567.567 0 00-.563.571c0 .316.252.572.563.572h1.319v1.234c0 1.578 1.261 2.856 2.817 2.857h13.314c1.556 0 2.817-1.28 2.817-2.857V2.857C21.832 1.281 20.573.001 19.02 0zm1.69 21.143a1.708 1.708 0 01-1.69 1.714H5.705a1.707 1.707 0 01-1.69-1.714v-1.234h1.318a.567.567 0 00.563-.572.567.567 0 00-.563-.571H4.014v-3.749h1.319a.567.567 0 00.563-.571.567.567 0 00-.563-.572H4.014v-3.748h1.319a.567.567 0 00.563-.572.567.567 0 00-.563-.571H4.014V5.234h1.319a.567.567 0 00.563-.571.567.567 0 00-.563-.572H4.014V2.857a1.707 1.707 0 011.69-1.714H19.02a1.708 1.708 0 011.69 1.714v18.286z"/><path d="M12.32 11.774a2.717 2.717 0 100-5.434 2.717 2.717 0 000 5.434zm0-4.32a1.597 1.597 0 110 3.194 1.597 1.597 0 010-3.194zm0 5.226c-2.284 0-4.075 1.933-4.075 4.407a.564.564 0 00.55.573h7.052a.564.564 0 00.55-.573c0-2.474-1.791-4.408-4.076-4.408zm-2.932 3.833c.236-1.567 1.417-2.686 2.933-2.686 1.516 0 2.702 1.119 2.933 2.686H9.388z"/></symbol><symbol id="done" viewBox="0 0 24 24"><path d="M5 12.192l1.4-1.346 3.6 3.462L17.6 7 19 8.346 10 17z" fill-rule="evenodd"/></symbol><symbol id="edit" viewBox="0 0 24 24"><path fill="#FFF" d="M13.462 8.003l2.441 2.453-6.18 6.209-2.439-2.453 6.178-6.21zm4.293-.592l-1.088-1.094a1.077 1.077 0 00-1.526 0l-1.043 1.048 2.44 2.453 1.217-1.222a.84.84 0 000-1.185zM6.007 17.66c-.045.2.136.38.336.332l2.72-.663-2.44-2.453-.616 2.784z"/></symbol><symbol id="facebook" viewBox="0 0 16 16"><path fill="#192959" d="M12.262.003L10.206 0c-2.31 0-3.803 1.532-3.803 3.902v1.8H4.336a.323.323 0 00-.323.323V8.63c0 .179.145.324.323.324h2.067v6.577c0 .179.145.323.324.323h2.697a.323.323 0 00.323-.323V8.955h2.417a.323.323 0 00.324-.324V6.025a.324.324 0 00-.323-.324H9.747V4.176c0-.733.175-1.105 1.13-1.105h1.385a.323.323 0 00.323-.324V.327a.323.323 0 00-.323-.324z"/></symbol><symbol id="filters" viewBox="0 0 24 24"><g fill="none" fill-rule="evenodd" stroke="#6B7382" transform="translate(4 7)"><path stroke-linecap="round" d="M0 2h17"/><rect width="4" height="4" x="3" fill="#FFF" rx="1"/><path stroke-linecap="round" d="M1 9h16"/><rect width="4" height="4" x="10" y="7" fill="#FFF" rx="1"/></g></symbol><symbol id="health" viewBox="0 0 24 24"><path d="M13.197 19.725c-.423.382-.894.791-1.196.883-.358-.106-.94-.644-1.793-1.431a180.71 180.71 0 00-.463-.426C6.576 15.847 3.177 11.597 3.138 8.38c-.013-1.101.357-1.999 1.133-2.745A5.329 5.329 0 017.977 4.13a5.29 5.29 0 013.634 1.436c.22.205.562.205.781 0a5.292 5.292 0 013.634-1.436 5.33 5.33 0 013.706 1.504c1.597 1.536 1.509 3.856-.263 6.897a.563.563 0 00.207.772.57.57 0 00.777-.206c2.575-4.42 1.46-6.94.07-8.275a6.465 6.465 0 00-8.522-.416 6.464 6.464 0 00-8.522.417c-.998.96-1.495 2.16-1.479 3.57.055 4.501 5.352 9.702 6.974 11.19.163.148.316.29.46.422 1.188 1.097 1.785 1.648 2.493 1.74a.57.57 0 00.149 0c.569-.074 1.082-.457 1.886-1.183a.563.563 0 00.039-.799.571.571 0 00-.804-.038z"/><path d="M20.054 14.244H18.22v-1.807a.567.567 0 00-.572-.562h-2.296a.567.567 0 00-.572.562v1.807h-1.834a.567.567 0 00-.571.562v2.263c0 .31.256.562.571.562h1.834v1.807c0 .31.256.562.572.562h2.296a.567.567 0 00.572-.562V17.63h1.834a.567.567 0 00.571-.562v-2.263a.567.567 0 00-.571-.562zm-.571 2.262h-1.835a.567.567 0 00-.57.563v1.806h-1.155v-1.806a.567.567 0 00-.571-.563h-1.835V15.37h1.835a.567.567 0 00.57-.563V13h1.155v1.806c0 .311.256.563.571.563h1.835v1.137z"/></symbol><symbol id="home" viewBox="0 0 24 24"><path d="M18.615 12.384a.595.595 0 00-.595.595v6.04H5.94v-6.04a.595.595 0 10-1.191 0v6.635c0 .33.266.596.595.596h13.271a.595.595 0 00.596-.596V12.98a.595.595 0 00-.596-.595z"/><path d="M21.784 12.558L12.4 3.174a.595.595 0 00-.842 0l-9.384 9.384a.595.595 0 10.842.842l8.963-8.963 8.964 8.963a.595.595 0 00.841-.842z"/></symbol><symbol id="plane" viewBox="0 0 24 24"><path d="M3.623 13.365a.384.384 0 00-.189.504l.865 1.856a.385.385 0 00.508.188l6.536-3.05-.592 6.185a.384.384 0 00.126.323 1.68 1.68 0 001.016.384c.102 0 .204-.013.303-.038.531-.138.942-.61 1.223-1.418l2.572-7.612 5.094-2.374c1.5-.7 2.273-2.117 1.754-3.224a1.946 1.946 0 00-1.504-1.05 3.566 3.566 0 00-2.099.324l-5.879 2.755-6.32-2.47c-.796-.3-1.427-.293-1.869.026a1.567 1.567 0 00-.573 1.241.384.384 0 00.166.304l4.256 2.924-2.438 1.153-4.087-1.038a.385.385 0 00-.427.184l-1.018 1.833a.383.383 0 00.2.542l3.025 1.249-.65.3zm1.76-7.642a.657.657 0 01.231-.415c.22-.158.62-.134 1.154.065l5.628 2.194-2.568 1.2-4.445-3.044zm-3.46 5.548l.67-1.187 3.932.976a.385.385 0 00.254-.023L19.563 5.07a2.812 2.812 0 011.642-.262c.393.037.744.264.938.608.323.691-.312 1.702-1.384 2.201l-4.43 2.075.27-.795a.39.39 0 10-.742-.246l-3.165 9.41c-.188.534-.423.853-.684.922a.651.651 0 01-.47-.088l.77-8.07a.386.386 0 00-.77-.072l-.118 1.233-6.598 3.074-.542-1.153 1.084-.507a.384.384 0 000-.703l-3.44-1.426z"/></symbol><symbol id="star" viewBox="0 0 16 16"><path fill="#F0CC5A" fill-rule="evenodd" d="M8 12l-4.702 2.472.898-5.236L.392 5.528l5.257-.764L8 0l2.351 4.764 5.257.764-3.804 3.708.898 5.236z"/></symbol><symbol id="twi" viewBox="0 0 16 16"><path fill="#192959" d="M16 3.539a6.839 6.839 0 01-1.89.518 3.262 3.262 0 001.443-1.813 6.555 6.555 0 01-2.08.794 3.28 3.28 0 00-5.674 2.243c0 .26.022.51.076.748a9.284 9.284 0 01-6.761-3.431 3.285 3.285 0 001.008 4.384A3.24 3.24 0 01.64 6.578v.036a3.295 3.295 0 002.628 3.223 3.274 3.274 0 01-.86.108 2.9 2.9 0 01-.621-.056 3.311 3.311 0 003.065 2.285 6.59 6.59 0 01-4.067 1.399c-.269 0-.527-.012-.785-.045A9.234 9.234 0 005.032 15c6.036 0 9.336-5 9.336-9.334 0-.145-.005-.285-.012-.424A6.544 6.544 0 0016 3.539z"/></symbol><symbol id="whatsapp" viewBox="0 0 16 16"><path fill="#192959" d="M15.828 7.71c0 4.259-3.479 7.71-7.77 7.71a7.794 7.794 0 01-3.756-.958L0 15.828l1.402-4.138A7.632 7.632 0 01.288 7.71C.288 3.452 3.766 0 8.058 0c4.292.001 7.77 3.452 7.77 7.71zM8.057 1.23c-3.602 0-6.532 2.907-6.532 6.482 0 1.418.462 2.731 1.244 3.8l-.815 2.406 2.509-.797a6.531 6.531 0 003.594 1.072c3.602 0 6.533-2.908 6.533-6.483.001-3.573-2.93-6.48-6.533-6.48zm3.924 8.256c-.048-.077-.175-.125-.365-.22s-1.127-.552-1.301-.614c-.176-.063-.303-.095-.43.094-.125.19-.49.615-.602.742-.111.126-.222.142-.413.049-.19-.096-.804-.294-1.532-.938a5.686 5.686 0 01-1.06-1.309c-.111-.189-.01-.29.084-.385.085-.085.19-.22.286-.332.095-.11.127-.187.19-.314.063-.126.031-.236-.016-.332-.047-.095-.428-1.024-.587-1.402-.159-.378-.317-.315-.429-.315-.11 0-.237-.016-.364-.016a.697.697 0 00-.508.235c-.174.19-.666.647-.666 1.577 0 .93.682 1.828.777 1.954.096.126 1.318 2.097 3.254 2.853 1.937.757 1.937.504 2.286.472.35-.032 1.128-.457 1.285-.897.16-.443.16-.823.111-.902z"/></symbol></svg>